<?xml version="1.0" encoding="UTF-8"?>
<mxfile host="app.diagrams.net">
  <diagram name="RRHH_Odoo_Flujo" id="X3b9cJ5aVg2Kd97cH52v">
    <mxGraphModel dx="1230" dy="780" grid="1" gridSize="10" guides="1" tooltips="1" connect="1" arrows="1" fold="1" page="1" pageScale="1" pageWidth="1169" pageHeight="827" math="0" shadow="0">
      <root>
        <mxCell id="0" />
        <mxCell id="1" parent="0" />
        
        <!-- 🟦 Módulo de Reclutamiento (Extendido) -->
        <mxCell id="reclutamiento" value="Módulo de Reclutamiento" style="swimlane;fillColor=#dae8fc;strokeColor=#6c8ebf;" vertex="1" parent="1">
          <mxGeometry x="20" y="20" width="340" height="700" as="geometry" />
        </mxCell>

        <mxCell id="definir_requisitos" value="Definición de Requisitos del Puesto" style="rounded=1;" vertex="1" parent="reclutamiento">
          <mxGeometry x="20" y="30" width="300" height="40" as="geometry"/>
        </mxCell>

        <mxCell id="publicar_vacante" value="Publicar Vacante" style="rounded=1;" vertex="1" parent="reclutamiento">
          <mxGeometry x="20" y="90" width="300" height="40" as="geometry"/>
        </mxCell>

        <mxCell id="recibir_postulaciones" value="Recibir Postulaciones" style="rounded=1;" vertex="1" parent="reclutamiento">
          <mxGeometry x="20" y="150" width="300" height="40" as="geometry"/>
        </mxCell>

        <mxCell id="evaluar_candidatos" value="Evaluar Candidatos" style="rounded=1;" vertex="1" parent="reclutamiento">
          <mxGeometry x="20" y="210" width="300" height="40" as="geometry"/>
        </mxCell>

        <mxCell id="test_formulario" value="Evaluación Formal (Test/Formulario)" style="rounded=1;" vertex="1" parent="reclutamiento">
          <mxGeometry x="20" y="270" width="300" height="40" as="geometry"/>
        </mxCell>

        <mxCell id="entrevistas" value="Entrevistas" style="rounded=1;" vertex="1" parent="reclutamiento">
          <mxGeometry x="20" y="330" width="300" height="40" as="geometry"/>
        </mxCell>

        <mxCell id="seleccion" value="Selección de Candidato" style="rounded=1;" vertex="1" parent="reclutamiento">
          <mxGeometry x="20" y="390" width="300" height="40" as="geometry"/>
        </mxCell>

        <mxCell id="oferta_laboral" value="Oferta Laboral" style="rounded=1;" vertex="1" parent="reclutamiento">
          <mxGeometry x="20" y="450" width="300" height="40" as="geometry"/>
        </mxCell>

        <mxCell id="crear_empleado" value="Creación de Empleado" style="ellipse;" vertex="1" parent="reclutamiento">
          <mxGeometry x="110" y="520" width="100" height="40" as="geometry"/>
        </mxCell>

        <!-- 🟩 Módulo de Empleados (Extendido) -->
        <mxCell id="empleados" value="Módulo Empleados" style="swimlane;fillColor=#d5e8d4;strokeColor=#82b366;" vertex="1" parent="1">
          <mxGeometry x="320" y="20" width="340" height="800" as="geometry" />
        </mxCell>

        <mxCell id="registro_empleado" value="Registro de Empleado" style="rounded=1;" vertex="1" parent="empleados">
          <mxGeometry x="20" y="30" width="300" height="40" as="geometry"/>
        </mxCell>

        <mxCell id="asignacion_puesto" value="Asignación de Puesto de Trabajo" style="rounded=1;" vertex="1" parent="empleados">
          <mxGeometry x="20" y="90" width="300" height="40" as="geometry"/>
        </mxCell>

        <mxCell id="asignacion_departamento" value="Asignación de Departamento" style="rounded=1;" vertex="1" parent="empleados">
          <mxGeometry x="20" y="150" width="300" height="40" as="geometry"/>
        </mxCell>

        <mxCell id="carga_datos_personales" value="Carga de Datos Personales" style="rounded=1;" vertex="1" parent="empleados">
          <mxGeometry x="20" y="210" width="300" height="40" as="geometry"/>
        </mxCell>

        <mxCell id="carga_documentacion" value="Carga de Documentación Requerida" style="rounded=1;" vertex="1" parent="empleados">
          <mxGeometry x="20" y="270" width="300" height="40" as="geometry"/>
        </mxCell>

        <mxCell id="asignacion_direccion" value="Asignación de Dirección" style="rounded=1;" vertex="1" parent="empleados">
          <mxGeometry x="20" y="330" width="300" height="40" as="geometry"/>
        </mxCell>

        <mxCell id="creacion_contrato" value="Creación de Contrato" style="rounded=1;" vertex="1" parent="empleados">
          <mxGeometry x="20" y="390" width="300" height="40" as="geometry"/>
        </mxCell>

        <mxCell id="gestion_beneficios" value="Gestión de Beneficios y Asignaciones" style="rounded=1;" vertex="1" parent="empleados">
          <mxGeometry x="20" y="450" width="300" height="40" as="geometry"/>
        </mxCell>

        <mxCell id="actualizacion_periodica" value="Actualización de Datos Bancarios / Teléfonos" style="rounded=1;" vertex="1" parent="empleados">
          <mxGeometry x="20" y="510" width="300" height="40" as="geometry"/>
        </mxCell>

        <mxCell id="asignacion_responsable" value="Asignación de Responsable Directo" style="rounded=1;" vertex="1" parent="empleados">
          <mxGeometry x="20" y="570" width="300" height="40" as="geometry"/>
        </mxCell>

        <mxCell id="activacion_portal" value="Activación en Portal Empleado (opcional)" style="rounded=1;" vertex="1" parent="empleados">
          <mxGeometry x="20" y="630" width="300" height="40" as="geometry"/>
        </mxCell>

        <mxCell id="control_cambio_estado" value="Control de Estado (Activo / Archivado)" style="rounded=1;" vertex="1" parent="empleados">
          <mxGeometry x="20" y="690" width="300" height="40" as="geometry"/>
        </mxCell>

        <!-- 🟨 Módulo de Asistencia (Extendido) -->
        <mxCell id="asistencia" value="Módulo Asistencia" style="swimlane;fillColor=#fff2cc;strokeColor=#d6b656;" vertex="1" parent="1">
          <mxGeometry x="620" y="20" width="340" height="600" as="geometry" />
        </mxCell>

        <mxCell id="registro_entrada" value="Registro de Entrada" style="rounded=1;" vertex="1" parent="asistencia">
          <mxGeometry x="20" y="30" width="300" height="40" as="geometry"/>
        </mxCell>

        <mxCell id="registro_salida" value="Registro de Salida" style="rounded=1;" vertex="1" parent="asistencia">
          <mxGeometry x="20" y="90" width="300" height="40" as="geometry"/>
        </mxCell>

        <mxCell id="validacion_asistencia" value="Validación de Registros" style="rounded=1;" vertex="1" parent="asistencia">
          <mxGeometry x="20" y="150" width="300" height="40" as="geometry"/>
        </mxCell>

        <mxCell id="calculo_horas_trabajadas" value="Cálculo de Horas Trabajadas" style="rounded=1;" vertex="1" parent="asistencia">
          <mxGeometry x="20" y="210" width="300" height="40" as="geometry"/>
        </mxCell>

        <mxCell id="ajuste_manual" value="Ajustes Manuales (Errores)" style="rounded=1;" vertex="1" parent="asistencia">
          <mxGeometry x="20" y="270" width="300" height="40" as="geometry"/>
        </mxCell>

        <mxCell id="cierre_jornada" value="Cierre de Jornada" style="rounded=1;" vertex="1" parent="asistencia">
          <mxGeometry x="20" y="330" width="300" height="40" as="geometry"/>
        </mxCell>

        <mxCell id="exportacion_nomina" value="Exportación de Horas a Nómina" style="rounded=1;" vertex="1" parent="asistencia">
          <mxGeometry x="20" y="390" width="300" height="40" as="geometry"/>
        </mxCell>

        <!-- 🟥 Módulo de Ausencias (Extendido) -->
        <mxCell id="ausencias" value="Módulo Ausencias" style="swimlane;fillColor=#f8cecc;strokeColor=#b85450;" vertex="1" parent="1">
          <mxGeometry x="620" y="350" width="340" height="900" as="geometry" />
        </mxCell>

        <mxCell id="creacion_solicitud" value="Creación de Solicitud de Ausencia" style="rounded=1;" vertex="1" parent="ausencias">
          <mxGeometry x="20" y="30" width="300" height="40" as="geometry"/>
        </mxCell>

        <mxCell id="seleccion_tipo_ausencia" value="Selección Tipo de Ausencia" style="rounded=1;" vertex="1" parent="ausencias">
          <mxGeometry x="20" y="90" width="300" height="40" as="geometry"/>
        </mxCell>

        <mxCell id="validacion_responsable" value="Validación por Responsable Directo" style="rounded=1;" vertex="1" parent="ausencias">
          <mxGeometry x="20" y="150" width="300" height="40" as="geometry"/>
        </mxCell>

        <mxCell id="validacion_rrhh" value="Validación por RRHH" style="rounded=1;" vertex="1" parent="ausencias">
          <mxGeometry x="20" y="210" width="300" height="40" as="geometry"/>
        </mxCell>

        <mxCell id="ajuste_saldo" value="Ajuste de Saldo de Días Disponibles" style="rounded=1;" vertex="1" parent="ausencias">
          <mxGeometry x="20" y="270" width="300" height="40" as="geometry"/>
        </mxCell>

        <mxCell id="registro_historial" value="Registro en Historial de Empleado" style="rounded=1;" vertex="1" parent="ausencias">
          <mxGeometry x="20" y="330" width="300" height="40" as="geometry"/>
        </mxCell>

        <mxCell id="enlace_nomina" value="Enlace con Nómina (Impacto Salarial)" style="rounded=1;" vertex="1" parent="ausencias">
          <mxGeometry x="20" y="390" width="300" height="40" as="geometry"/>
        </mxCell>

        <mxCell id="gestion_recurrentes" value="Gestión de Ausencias Recurrentes" style="rounded=1;" vertex="1" parent="ausencias">
          <mxGeometry x="20" y="450" width="300" height="40" as="geometry"/>
        </mxCell>

        <mxCell id="reportes_ausencias" value="Reportes de Ausencias" style="rounded=1;" vertex="1" parent="ausencias">
          <mxGeometry x="20" y="510" width="300" height="40" as="geometry"/>
        </mxCell>

        <mxCell id="notificaciones" value="Notificaciones Automáticas" style="rounded=1;" vertex="1" parent="ausencias">
          <mxGeometry x="20" y="570" width="300" height="40" as="geometry"/>
        </mxCell>

        <mxCell id="cancelacion_solicitud" value="Cancelación de Solicitud" style="rounded=1;" vertex="1" parent="ausencias">
          <mxGeometry x="20" y="630" width="300" height="40" as="geometry"/>
        </mxCell>

        <!-- 🟪 Módulo de Nómina (Extendido) -->
        <mxCell id="nomina" value="Módulo Nómina" style="swimlane;fillColor=#e1d5e7;strokeColor=#9673a6;" vertex="1" parent="1">
          <mxGeometry x="920" y="20" width="340" height="800" as="geometry" />
        </mxCell>

        <mxCell id="calculo_salario_base" value="Cálculo de Salario Base" style="rounded=1;" vertex="1" parent="nomina">
          <mxGeometry x="20" y="30" width="300" height="40" as="geometry"/>
        </mxCell>

        <mxCell id="inclusion_horas_trabajadas" value="Inclusión de Horas Trabajadas" style="rounded=1;" vertex="1" parent="nomina">
          <mxGeometry x="20" y="90" width="300" height="40" as="geometry"/>
        </mxCell>

        <mxCell id="inclusion_ausencias" value="Deducciones por Ausencias" style="rounded=1;" vertex="1" parent="nomina">
          <mxGeometry x="20" y="150" width="300" height="40" as="geometry"/>
        </mxCell>

        <mxCell id="inclusion_inputs_adicionales" value="Inclusión de Bonos / Premios / Descuentos" style="rounded=1;" vertex="1" parent="nomina">
          <mxGeometry x="20" y="210" width="300" height="40" as="geometry"/>
        </mxCell>

        <mxCell id="calculo_aportes_impuestos" value="Cálculo de Aportes e Impuestos" style="rounded=1;" vertex="1" parent="nomina">
          <mxGeometry x="20" y="270" width="300" height="40" as="geometry"/>
        </mxCell>

        <mxCell id="generacion_recibo_nomina" value="Generación de Recibo de Nómina" style="rounded=1;" vertex="1" parent="nomina">
          <mxGeometry x="20" y="330" width="300" height="40" as="geometry"/>
        </mxCell>

        <mxCell id="validacion_recibo" value="Validación de Recibo" style="rounded=1;" vertex="1" parent="nomina">
          <mxGeometry x="20" y="390" width="300" height="40" as="geometry"/>
        </mxCell>

        <mxCell id="generacion_asiento_contable" value="Generación de Asiento Contable" style="rounded=1;" vertex="1" parent="nomina">
          <mxGeometry x="20" y="450" width="300" height="40" as="geometry"/>
        </mxCell>

        <mxCell id="proceso_pago" value="Proceso de Pago al Empleado" style="rounded=1;" vertex="1" parent="nomina">
          <mxGeometry x="20" y="510" width="300" height="40" as="geometry"/>
        </mxCell>

        <mxCell id="reporte_nomina" value="Reporte y Archivo de Nómina" style="rounded=1;" vertex="1" parent="nomina">
          <mxGeometry x="20" y="570" width="300" height="40" as="geometry"/>
        </mxCell>
	
        <!-- 🔗 Conexiones mejoradas entre módulos -->
        
        <!-- De Reclutamiento a Empleados -->
        <mxCell id="con_reclutamiento_empleados" style="edgeStyle=orthogonalEdgeStyle;rounded=0;endArrow=block;html=1;strokeColor=#6c8ebf;" edge="1" parent="1" source="crear_empleado" target="registro_empleado">
          <mxGeometry relative="1" as="geometry"/>
        </mxCell>

        <!-- De Empleados a Nómina (Creación de Contrato) -->
        <mxCell id="con_empleados_nomina_contrato" style="edgeStyle=orthogonalEdgeStyle;rounded=0;endArrow=block;html=1;strokeColor=#82b366;" edge="1" parent="1" source="creacion_contrato" target="calculo_salario_base">
          <mxGeometry relative="1" as="geometry"/>
        </mxCell>

        <!-- De Asistencia a Nómina (Exportación de Horas Trabajadas) -->
        <mxCell id="con_asistencia_nomina_horas" style="edgeStyle=orthogonalEdgeStyle;rounded=0;endArrow=block;html=1;strokeColor=#d6b656;" edge="1" parent="1" source="exportacion_nomina" target="inclusion_horas_trabajadas">
          <mxGeometry relative="1" as="geometry"/>
        </mxCell>

        <!-- De Ausencias a Nómina (Impacto Salarial) -->
        <mxCell id="con_ausencias_nomina_dias" style="edgeStyle=orthogonalEdgeStyle;rounded=0;endArrow=block;html=1;strokeColor=#b85450;" edge="1" parent="1" source="enlace_nomina" target="deducciones_por_ausencias">
          <mxGeometry relative="1" as="geometry"/>
        </mxCell>

        <!-- Conexiones internas dentro del Módulo de Nómina (extendidas) -->

        <mxCell id="con_salario_horas" style="edgeStyle=orthogonalEdgeStyle;rounded=0;endArrow=block;html=1;" edge="1" parent="1" source="calculo_salario_base" target="inclusion_horas_trabajadas">
          <mxGeometry relative="1" as="geometry"/>
        </mxCell>

        <mxCell id="con_horas_ausencias" style="edgeStyle=orthogonalEdgeStyle;rounded=0;endArrow=block;html=1;" edge="1" parent="1" source="inclusion_horas_trabajadas" target="deducciones_por_ausencias">
          <mxGeometry relative="1" as="geometry"/>
        </mxCell>

        <mxCell id="con_ausencias_inputs" style="edgeStyle=orthogonalEdgeStyle;rounded=0;endArrow=block;html=1;" edge="1" parent="1" source="deducciones_por_ausencias" target="inclusion_inputs_adicionales">
          <mxGeometry relative="1" as="geometry"/>
        </mxCell>

        <mxCell id="con_inputs_aportes" style="edgeStyle=orthogonalEdgeStyle;rounded=0;endArrow=block;html=1;" edge="1" parent="1" source="inclusion_inputs_adicionales" target="calculo_aportes_impuestos">
          <mxGeometry relative="1" as="geometry"/>
        </mxCell>

        <mxCell id="con_aportes_recibo" style="edgeStyle=orthogonalEdgeStyle;rounded=0;endArrow=block;html=1;" edge="1" parent="1" source="calculo_aportes_impuestos" target="generacion_recibo_nomina">
          <mxGeometry relative="1" as="geometry"/>
        </mxCell>

        <mxCell id="con_recibo_validacion" style="edgeStyle=orthogonalEdgeStyle;rounded=0;endArrow=block;html=1;" edge="1" parent="1" source="generacion_recibo_nomina" target="validacion_recibo">
          <mxGeometry relative="1" as="geometry"/>
        </mxCell>

        <mxCell id="con_validacion_asiento" style="edgeStyle=orthogonalEdgeStyle;rounded=0;endArrow=block;html=1;" edge="1" parent="1" source="validacion_recibo" target="generacion_asiento_contable">
          <mxGeometry relative="1" as="geometry"/>
        </mxCell>

        <mxCell id="con_asiento_pago" style="edgeStyle=orthogonalEdgeStyle;rounded=0;endArrow=block;html=1;" edge="1" parent="1" source="generacion_asiento_contable" target="proceso_pago">
          <mxGeometry relative="1" as="geometry"/>
        </mxCell>

        <mxCell id="con_pago_reporte" style="edgeStyle=orthogonalEdgeStyle;rounded=0;endArrow=block;html=1;" edge="1" parent="1" source="proceso_pago" target="reporte_nomina">
          <mxGeometry relative="1" as="geometry"/>
        </mxCell>
        <!-- 🟥 Módulo de Amonestaciones -->
        <mxCell id="amonestaciones" value="Módulo Amonestaciones" style="swimlane;fillColor=#f8cecc;strokeColor=#b85450;" vertex="1" parent="1">
          <mxGeometry x="920" y="850" width="340" height="500" as="geometry" />
        </mxCell>

        <mxCell id="registro_amonestacion" value="Registro de Amonestación" style="rounded=1;" vertex="1" parent="amonestaciones">
          <mxGeometry x="20" y="30" width="300" height="40" as="geometry"/>
        </mxCell>

        <mxCell id="seleccion_empleado_amonestado" value="Selección del Empleado" style="rounded=1;" vertex="1" parent="amonestaciones">
          <mxGeometry x="20" y="90" width="300" height="40" as="geometry"/>
        </mxCell>

        <mxCell id="definicion_tipo_amonestacion" value="Definición del Tipo de Amonestación" style="rounded=1;" vertex="1" parent="amonestaciones">
          <mxGeometry x="20" y="150" width="300" height="40" as="geometry"/>
        </mxCell>

        <mxCell id="adjuntar_documento" value="Adjuntar Documento de Apoyo" style="rounded=1;" vertex="1" parent="amonestaciones">
          <mxGeometry x="20" y="210" width="300" height="40" as="geometry"/>
        </mxCell>

        <mxCell id="validacion_amonestacion" value="Validación Interna" style="rounded=1;" vertex="1" parent="amonestaciones">
          <mxGeometry x="20" y="270" width="300" height="40" as="geometry"/>
        </mxCell>

        <mxCell id="generacion_reporte_pdf" value="Generación de Reporte PDF" style="rounded=1;" vertex="1" parent="amonestaciones">
          <mxGeometry x="20" y="330" width="300" height="40" as="geometry"/>
        </mxCell>

        <mxCell id="archivo_historial_empleado" value="Archivo en Historial del Empleado" style="rounded=1;" vertex="1" parent="amonestaciones">
          <mxGeometry x="20" y="390" width="300" height="40" as="geometry"/>
        </mxCell>

        <!-- 🔗 Conexiones de Amonestaciones -->
        
        <!-- Desde Empleados hacia Amonestaciones -->
        <mxCell id="con_empleado_amonestaciones" style="edgeStyle=orthogonalEdgeStyle;rounded=0;endArrow=block;html=1;strokeColor=#82b366;" edge="1" parent="1" source="registro_empleado" target="registro_amonestacion">
          <mxGeometry relative="1" as="geometry"/>
        </mxCell>

        <!-- Desde Amonestaciones hacia Historial del Empleado -->
        <mxCell id="con_amonestaciones_historial" style="edgeStyle=orthogonalEdgeStyle;rounded=0;endArrow=block;html=1;strokeColor=#b85450;" edge="1" parent="1" source="archivo_historial_empleado" target="control_cambio_estado">
          <mxGeometry relative="1" as="geometry"/>
        </mxCell>

        <!-- 🟫 Módulo de Custodia de Empleados -->
        <mxCell id="custodia" value="Módulo Custodia de Empleados" style="swimlane;fillColor=#f5f5f5;strokeColor=#888888;" vertex="1" parent="1">
          <mxGeometry x="1280" y="20" width="340" height="700" as="geometry" />
        </mxCell>

        <mxCell id="registro_solicitud_custodia" value="Registro de Solicitud de Custodia" style="rounded=1;" vertex="1" parent="custodia">
          <mxGeometry x="20" y="30" width="300" height="40" as="geometry"/>
        </mxCell>

        <mxCell id="seleccion_propiedad" value="Selección de Propiedad a Custodiar" style="rounded=1;" vertex="1" parent="custodia">
          <mxGeometry x="20" y="90" width="300" height="40" as="geometry"/>
        </mxCell>

        <mxCell id="validacion_custodia" value="Validación de Solicitud (Aprobación / Rechazo)" style="rounded=1;" vertex="1" parent="custodia">
          <mxGeometry x="20" y="150" width="300" height="40" as="geometry"/>
        </mxCell>

        <mxCell id="asignacion_propiedad" value="Asignación Formal de Propiedad" style="rounded=1;" vertex="1" parent="custodia">
          <mxGeometry x="20" y="210" width="300" height="40" as="geometry"/>
        </mxCell>

        <mxCell id="generacion_documento_entrega" value="Generación de Documento de Entrega" style="rounded=1;" vertex="1" parent="custodia">
          <mxGeometry x="20" y="270" width="300" height="40" as="geometry"/>
        </mxCell>

        <mxCell id="seguimiento_custodia" value="Seguimiento / Renovación de Custodia" style="rounded=1;" vertex="1" parent="custodia">
          <mxGeometry x="20" y="330" width="300" height="40" as="geometry"/>
        </mxCell>

        <mxCell id="registro_devolucion" value="Registro de Devolución de Propiedad" style="rounded=1;" vertex="1" parent="custodia">
          <mxGeometry x="20" y="390" width="300" height="40" as="geometry"/>
        </mxCell>

        <!-- 🔗 Conexiones de Custodia -->

        <!-- Desde Empleados hacia Custodia -->
        <mxCell id="con_empleado_custodia" style="edgeStyle=orthogonalEdgeStyle;rounded=0;endArrow=block;html=1;strokeColor=#82b366;" edge="1" parent="1" source="registro_empleado" target="registro_solicitud_custodia">
          <mxGeometry relative="1" as="geometry"/>
        </mxCell>

        <!-- Desde Custodia hacia control de estado en Empleados (opcional, entrega cerrada) -->
        <mxCell id="con_custodia_estado" style="edgeStyle=orthogonalEdgeStyle;rounded=0;endArrow=block;html=1;strokeColor=#888888;" edge="1" parent="1" source="registro_devolucion" target="control_cambio_estado">
          <mxGeometry relative="1" as="geometry"/>
        </mxCell>

      </root>
    </mxGraphModel>
  </diagram>
</mxfile>

